<svg
    xmlns="http://www.w3.org/2000/svg"
    viewBox="0 0 212 212"
    id="vector">
    <path
        id="path_1"
        d="M 52.197 129.751 C 38.53 106.461 40.459 80.457 58.451 61.633 C 72.302 47.141 89.829 41.111 109.874 45.661 C 116.092 47.072 121.965 50.125 127.886 52.68 C 130.991 54.02 131.716 56.142 128.8 58.73 C 126.81 60.495 124.887 62.37 123.157 64.387 C 118.35 69.992 112.708 71.61 105.307 70.112 C 87.666 66.542 72.501 76.608 68.841 94.194 C 66.321 106.3 70.505 117.081 80.545 123.439 C 91.04 130.086 91.675 138.986 90.943 149.285 C 90.617 153.869 88.022 154.193 84.335 153.238 C 70.634 149.69 60.09 141.852 52.197 129.751 Z"
        fill="#000000"/>
    <path
        id="path_2_1"
        d="M 153.954 103.732 C 152.102 127.728 135.763 146.145 115.768 152.497 C 108.231 154.891 107.056 153.925 107.007 145.971 C 106.991 143.311 107.069 140.65 107.016 137.991 C 106.91 132.681 109.157 128.928 113.76 126.131 C 125.869 118.775 130.921 107.707 128.515 93.927 C 127.106 85.859 128.842 79.956 134.911 74.388 C 144.135 65.929 144.659 65.838 149.627 77.454 C 153.169 85.734 154.422 94.344 153.954 103.732 Z"
        fill="#000000"/>
    <path
        id="path_3_1"
        d="M 159.482 50.091 C 162.607 46.887 165.652 44.038 168.395 40.923 C 171.642 37.237 171.613 32.488 168.633 29.701 C 165.326 26.609 161.3 26.685 157.459 30.158 C 154.502 32.832 151.799 35.785 148.892 38.518 C 146.286 40.968 144.818 39.912 144.184 36.778 C 142.083 26.391 150.365 15.355 161.753 13.374 C 172.12 11.571 183.349 19.645 184.804 29.949 C 186.863 44.538 176.158 55.847 161.973 54.024 C 159.89 53.757 156.965 53.897 159.482 50.091 Z"
        fill="#000000"/>
    <path
        id="path_4"
        d="M 81.106 94.365 C 86.186 82.984 95.911 78.134 103.913 83.335 C 100.524 86.836 97.115 90.16 93.935 93.689 C 89.867 98.203 90.316 103.128 94.932 106.038 C 98.611 108.357 101.896 107.452 104.867 104.591 C 108.268 101.316 111.68 98.054 115.271 94.609 C 118.526 101.52 116.59 108.476 110.511 113.936 C 104.983 118.902 95.683 119.439 88.6 115.201 C 82.003 111.254 78.933 103.003 81.106 94.365 Z M 113.156 186.117 C 111.691 193.209 107.415 196.886 100.801 197.795 C 94.635 198.642 89.498 196.495 86.311 191.108 C 82.969 185.459 83.22 179.707 87.218 174.276 C 91.009 169.126 98.245 167.338 104.767 170.011 C 111.088 172.601 114.225 178.42 113.156 186.117 Z"
        fill="#000000"/>
</svg>
