<?xml version="1.0" encoding="UTF-8"?>
<svg width="236px" height="116px" viewBox="0 0 236 116" version="1.1" xmlns="http://www.w3.org/2000/svg" xmlns:xlink="http://www.w3.org/1999/xlink">
    <!-- Generator: Sketch 59.1 (86144) - https://sketch.com -->
    <title>Artboard Copy 2</title>
    <desc>Created with Sketch.</desc>
    <g id="Artboard-Copy-2" stroke="none" stroke-width="1" fill="none" fill-rule="evenodd">
        <g id="PydioCells" transform="translate(16.000000, 14.000000)" fill-rule="nonzero">
            <g id="Group">
                <path d="M197.081129,0.201939394 C192.758152,0.201939394 189.253612,3.55232323 189.253612,7.6850101 C189.253612,8.60816162 189.437656,9.48775758 189.756627,10.3045657 L194.282586,5.97842424 C195.548411,4.76848485 197.600715,4.76848485 198.86654,5.97842424 C200.132364,7.18892929 200.132364,9.15006061 198.86654,10.36 L194.340581,14.6867071 C195.194524,14.9927273 196.115931,15.1669495 197.081129,15.1669495 C201.404106,15.1669495 204.909831,11.817697 204.909831,7.68557576 C204.909831,3.55345455 201.404106,0.201939394 197.081129,0.201939394" id="Shape" fill="#EE776C"></path>
                <path d="M21.5463659,11.7102222 C9.80242628,11.7102222 0.246901277,20.8433131 0.246901277,32.0687677 L0.246901277,63.9361616 C0.246901277,66.3809293 2.31991819,68.3629899 4.87760563,68.3629899 C7.43529306,68.3629899 9.50830998,66.3809293 9.50830998,63.9361616 L9.50830998,48.8529293 C12.9359189,51.1059394 17.0813609,52.4290101 21.5463659,52.4290101 C33.2914892,52.4290101 42.8470142,43.2953535 42.8470142,32.0687677 C42.8464224,20.8438788 33.2908974,11.7102222 21.5463659,11.7102222 M21.5463659,43.5776162 C14.9083326,43.5776162 9.50830998,38.4148687 9.50830998,32.0687677 C9.50830998,25.723798 14.9083326,20.5610505 21.5463659,20.5610505 C28.184991,20.5610505 33.5856055,25.723798 33.5856055,32.0687677 C33.5850137,38.4148687 28.1843992,43.5776162 21.5463659,43.5776162" id="Shape" fill="#FFFFFF"></path>
                <path d="M142.400352,52.4295758 C139.842665,52.4295758 137.769056,50.4475152 137.769056,48.0027475 L137.769056,16.1353535 C137.769056,13.6911515 139.842665,11.7096566 142.400352,11.7096566 C144.956856,11.7096566 147.029281,13.6911515 147.029281,16.1353535 L147.029281,48.0021818 C147.029281,50.4475152 144.956856,52.4295758 142.400352,52.4295758" id="Shape" fill="#FFFFFF"></path>
                <path d="M84.0564363,11.7102222 C81.4993406,11.7102222 79.4263237,13.6917172 79.4263237,16.1353535 L79.4263237,32.0687677 C79.4263237,38.4137374 74.0257093,43.5776162 67.387676,43.5776162 C60.7484591,43.5776162 55.3490282,38.4137374 55.3490282,32.0687677 L55.3490282,16.1353535 C55.3490282,13.6917172 53.2760113,11.7102222 50.7189157,11.7102222 C48.1606364,11.7102222 46.0876195,13.6917172 46.0876195,16.1353535 L46.0876195,32.0687677 C46.0876195,43.2953535 55.6431445,52.4290101 67.3882678,52.4290101 C71.8367028,52.4290101 75.9691257,51.1161212 79.3890414,48.8795152 C78.9191654,54.8160808 73.7173902,59.511596 67.3882678,59.511596 C64.8311721,59.511596 62.7581552,61.4913939 62.7581552,63.9361616 C62.7581552,66.379798 64.8311721,68.3607273 67.3882678,68.3607273 C79.1327992,68.3607273 88.6877324,59.2276364 88.6877324,48.0033131 L88.6877324,32.0687677 L88.6877324,16.1353535 C88.6871406,13.6917172 86.6135319,11.7102222 84.0564363,11.7102222" id="Shape" fill="#FFFFFF"></path>
                <path d="M129.897746,0.201939394 C127.340651,0.201939394 125.267634,2.18343434 125.267634,4.62763636 L125.267634,15.2857374 C121.840025,13.0327273 117.693399,11.7102222 113.227802,11.7102222 C101.483863,11.7102222 91.9283378,20.8433131 91.9283378,32.0687677 C91.9283378,43.2953535 101.483271,52.4290101 113.227802,52.4290101 C124.972926,52.4290101 134.526675,43.2953535 134.526675,32.0687677 L134.526675,4.62820202 C134.526675,2.184 132.45425,0.201939394 129.897746,0.201939394 M113.227802,43.5776162 C106.589769,43.5776162 101.189155,38.4148687 101.189155,32.0687677 C101.189155,25.723798 106.589769,20.5610505 113.227802,20.5610505 C119.866428,20.5610505 125.267634,25.723798 125.267634,32.0687677 C125.267634,38.4148687 119.866428,43.5776162 113.227802,43.5776162" id="Shape" fill="#FFFFFF"></path>
                <path d="M177.149276,63.0294141 C177.149276,65.9742222 174.651359,68.3635556 171.57231,68.3635556 C168.490894,68.3635556 165.992977,65.9742222 165.992977,63.0294141 C165.992977,60.0857374 168.490894,57.6986667 171.57231,57.6986667 C174.651359,57.6986667 177.149276,60.0857374 177.149276,63.0294141" id="Shape" fill="#EE776C"></path>
                <path d="M159.616512,30.6925253 C160.23966,25.5925657 164.466176,21.4253737 169.783349,20.6871919 C171.627938,20.4298182 173.408022,20.5791515 175.04016,21.0509091 C176.664014,21.5192727 178.422202,21.1380202 179.620563,19.9925657 L184.15599,15.6573737 C179.998713,12.7357576 174.696926,11.218101 169.021724,11.852202 C159.23422,12.9467475 151.409069,20.5305051 150.390019,29.9000404 C149.179822,41.0197172 157.400284,50.5923232 168.330521,52.193697 L168.330521,46.0433131 C168.330521,44.4430707 167.402605,42.9814141 165.92433,42.2262626 C161.731546,40.0897778 159.009342,35.6561616 159.616512,30.6925253" id="Shape" fill="#FFFFFF"></path>
                <path d="M184.203333,24.376404 C183.023317,25.5043232 182.585397,27.1611313 183.076578,28.6855758 C183.423363,29.7546667 183.609182,30.8916364 183.609182,32.0687677 C183.609182,36.4859798 180.994684,40.3250909 177.166438,42.2534141 C175.702958,42.989899 174.811732,44.4628687 174.811732,46.0444444 L174.811732,52.193697 C185.023545,50.696404 192.869408,42.2415354 192.869408,32.0687677 C192.869408,27.5712323 191.333138,23.4119596 188.739352,20.0389495 L184.203333,24.376404 Z" id="Shape" fill="#FFFFFF"></path>
                <path d="M147.028098,4.63046465 C147.028098,7.07410101 144.955672,9.05389899 142.400352,9.05389899 C139.843848,9.05389899 137.77024,7.07410101 137.77024,4.63046465 C137.77024,2.18682828 139.843848,0.205333212 142.400352,0.205333212 C144.955672,0.204767677 147.028098,2.18626263 147.028098,4.63046465" id="Shape" fill="#FFFFFF"></path>
                <path d="M173.863103,34.2601212 C173.231079,34.8642424 172.400807,35.1668687 171.57231,35.1668687 C170.74263,35.1668687 169.912358,34.8648081 169.27915,34.2601212 C168.013325,33.0501818 168.013325,31.0884848 169.27915,29.8779798 L173.681426,25.6706263 C173.013302,25.4698182 172.307305,25.3612121 171.57231,25.3612121 C167.695538,25.3612121 164.554352,28.3642828 164.554352,32.068202 C164.554352,35.7738182 167.696129,38.7763232 171.57231,38.7763232 C175.446715,38.7763232 178.587901,35.7732525 178.587901,32.068202 C178.587901,31.3645253 178.474871,30.6885657 178.264196,30.052202 L173.863103,34.2601212 Z" id="Shape" fill="#EE776C"></path>
            </g>
        </g>
        <g id="ANDROID" transform="translate(119.080721, 88.867200)" fill-rule="nonzero">
            <path d="M8.62400017,8.04384016 L2.25792004,8.04384016 L0.862400017,11.1328002 L-4.97379915e-14,11.1328002 L5.0489601,0.156800003 L5.84864011,0.156800003 L10.8976002,11.1328002 L10.0352002,11.1328002 L8.62400017,8.04384016 Z M8.32608016,7.36960014 L5.44096011,1.03488002 L2.57152005,7.36960014 L8.32608016,7.36960014 Z M25.4206514,0.156800003 L25.4206514,11.1328002 L24.7620914,11.1328002 L17.2827313,1.59936003 L17.2827313,11.1328002 L16.4830513,11.1328002 L16.4830513,0.156800003 L17.1572913,0.156800003 L24.6209714,9.69024019 L24.6209714,0.156800003 L25.4206514,0.156800003 Z M32.8406625,0.156800003 L37.1840226,0.156800003 C38.3234416,0.156800003 39.3347915,0.391997656 40.2181026,0.862400017 C41.1014137,1.33280238 41.7887136,1.98351588 42.2800227,2.81456005 C42.7713318,3.64560423 43.0169827,4.58900814 43.0169827,5.64480011 C43.0169827,6.70059208 42.7713318,7.64399599 42.2800227,8.47504016 C41.7887136,9.30608434 41.1014137,9.95679784 40.2181026,10.4272002 C39.3347915,10.8976026 38.3234416,11.1328002 37.1840226,11.1328002 L32.8406625,11.1328002 L32.8406625,0.156800003 Z M37.1213026,10.4115202 C38.135281,10.4115202 39.0290321,10.2102955 39.8025826,9.80784019 C40.5761332,9.40538484 41.1719672,8.84352378 41.5901027,8.12224016 C42.0082381,7.40095654 42.2173027,6.57515145 42.2173027,5.64480011 C42.2173027,4.71444877 42.0082381,3.88864368 41.5901027,3.16736006 C41.1719672,2.44607644 40.5761332,1.88421538 39.8025826,1.48176003 C39.0290321,1.07930468 38.135281,0.878080017 37.1213026,0.878080017 L33.6403425,0.878080017 L33.6403425,10.4115202 L37.1213026,10.4115202 Z M53.3221138,0.156800003 C54.7019608,0.156800003 55.78387,0.483463409 56.5678739,1.13680002 C57.3518778,1.79013663 57.7438739,2.69695425 57.7438739,3.85728008 C57.7438739,4.7249111 57.5217428,5.45402382 57.0774739,6.04464012 C56.633205,6.63525642 55.9981713,7.05077227 55.1723539,7.29120014 L57.9163539,11.1328002 L57.0069139,11.1328002 L54.3883538,7.46368015 C54.0015786,7.51594707 53.6461688,7.54208015 53.3221138,7.54208015 L50.1861138,7.54208015 L50.1861138,11.1328002 L49.3864338,11.1328002 L49.3864338,0.156800003 L53.3221138,0.156800003 Z M53.3221138,0.878080017 L50.1861138,0.878080017 L50.1861138,6.83648013 L53.3221138,6.83648013 C54.492893,6.83648013 55.3866441,6.57776272 56.0033939,6.06032012 C56.6201436,5.54287752 56.9285139,4.80853818 56.9285139,3.85728008 C56.9285139,2.90602197 56.6201436,2.17168263 56.0033939,1.65424003 C55.3866441,1.13679743 54.492893,0.878080017 53.3221138,0.878080017 L53.3221138,0.878080017 Z" id="ANDR" fill="#FFFFFF"></path>
            <path d="M68.9584451,1.42108547e-14 C70.0769573,1.42108547e-14 71.0856939,0.243037574 71.9846851,0.729120014 C72.8836763,1.21520245 73.5892693,1.88682242 74.1014852,2.74400005 C74.6137011,3.60117769 74.8698052,4.56810137 74.8698052,5.64480011 C74.8698052,6.72149885 74.6137011,7.68842253 74.1014852,8.54560017 C73.5892693,9.4027778 72.8836763,10.0743978 71.9846851,10.5604802 C71.0856939,11.0465626 70.0769573,11.2896002 68.9584451,11.2896002 C67.8399328,11.2896002 66.8311962,11.0465626 65.932205,10.5604802 C65.0332138,10.0743978 64.3276209,9.40016449 63.815405,8.53776017 C63.3031891,7.67535584 63.0470849,6.71104546 63.0470849,5.64480011 C63.0470849,4.57855476 63.3031891,3.61424438 63.815405,2.75184005 C64.3276209,1.88943572 65.0332138,1.21520245 65.932205,0.729120014 C66.8311962,0.243037574 67.8399328,1.42108547e-14 68.9584451,1.42108547e-14 Z M68.9584451,1.78752003 C68.2267081,1.78752003 67.5681546,1.95215839 66.982765,2.28144004 C66.3973754,2.6107217 65.9374333,3.07066377 65.602925,3.66128007 C65.2684167,4.25189637 65.101165,4.9130631 65.101165,5.64480011 C65.101165,6.37653712 65.2684167,7.03770385 65.602925,7.62832015 C65.9374333,8.21893645 66.3973754,8.67887852 66.982765,9.00816018 C67.5681546,9.33744183 68.2267081,9.50208018 68.9584451,9.50208018 C69.6901821,9.50208018 70.3487355,9.33744183 70.9341251,9.00816018 C71.5195147,8.67887852 71.9794568,8.21893645 72.3139651,7.62832015 C72.6484735,7.03770385 72.8157251,6.37653712 72.8157251,5.64480011 C72.8157251,4.9130631 72.6484735,4.25189637 72.3139651,3.66128007 C71.9794568,3.07066377 71.5195147,2.6107217 70.9341251,2.28144004 C70.3487355,1.95215839 69.6901821,1.78752003 68.9584451,1.78752003 Z" id="O" fill="#F08277"></path>
            <path d="M81.0667762,0.156800003 L81.8664562,0.156800003 L81.8664562,11.1328002 L81.0667762,11.1328002 L81.0667762,0.156800003 Z M93.6298274,0.156800003 C94.7692465,0.156800003 95.7805964,0.391997656 96.6639075,0.862400017 C97.5472186,1.33280238 98.2345184,1.98351588 98.7258275,2.81456005 C99.2171366,3.64560423 99.4627875,4.58900814 99.4627875,5.64480011 C99.4627875,6.70059208 99.2171366,7.64399599 98.7258275,8.47504016 C98.2345184,9.30608434 97.5472186,9.95679784 96.6639075,10.4272002 C95.7805964,10.8976026 94.7692465,11.1328002 93.6298274,11.1328002 L89.2864673,11.1328002 L89.2864673,0.156800003 L93.6298274,0.156800003 Z M93.5671074,0.878080017 L90.0861473,0.878080017 L90.0861473,10.4115202 L93.5671074,10.4115202 C94.5810858,10.4115202 95.4748369,10.2102955 96.2483875,9.80784019 C97.021938,9.40538484 97.6177721,8.84352378 98.0359075,8.12224016 C98.4540429,7.40095654 98.6631075,6.57515145 98.6631075,5.64480011 C98.6631075,4.71444877 98.4540429,3.88864368 98.0359075,3.16736006 C97.6177721,2.44607644 97.021938,1.88421538 96.2483875,1.48176003 C95.4748369,1.07930468 94.5810858,0.878080017 93.5671074,0.878080017 L93.5671074,0.878080017 Z" id="ID" fill="#FFFFFF"></path>
        </g>
    </g>
</svg>